<?xml version="1.0" encoding="UTF-8"?>
<!DOCTYPE svg PUBLIC "-//W3C//DTD SVG 1.1//EN" "http://www.w3.org/Graphics/SVG/1.1/DTD/svg11.dtd">
<!-- Creator: CorelDRAW -->
<svg xmlns="http://www.w3.org/2000/svg" xml:space="preserve" width="25.4384in" height="4.7371in" version="1.1" style="shape-rendering:geometricPrecision; text-rendering:geometricPrecision; image-rendering:optimizeQuality; fill-rule:evenodd; clip-rule:evenodd"
viewBox="0 0 26868.48 5003.41"
 xmlns:xlink="http://www.w3.org/1999/xlink"
 xmlns:xodm="http://www.corel.com/coreldraw/odm/2003">
 <defs>
  <style type="text/css">
   <![CDATA[
    .fil0 {fill:#C8353E;fill-rule:nonzero}
    .fil1 {fill:#373C68;fill-rule:nonzero}
    .fil2 {fill:#373C68;fill-rule:nonzero}
   ]]>
  </style>
 </defs>
 <g id="Layer_x0020_1">
  <metadata id="CorelCorpID_0Corel-Layer"/>
  <g id="_1749182834224">
   <path class="fil0" d="M3403.27 1075.8c2.47,5.03 5.29,9.89 7.76,14.92 3.21,6.83 6,13.67 8.87,20.68 1.95,4.88 4.24,9.58 6.02,14.54 4.56,11.82 8.44,23.99 11.8,36 188.31,514.22 138,1107.77 -189.57,1597.23 -9.15,13.66 -18.55,27.23 -28.04,40.64 -2.91,3.98 -5.67,7.85 -8.58,11.83 -6.84,9.36 -13.51,18.62 -20.43,27.8 -3.42,4.68 -6.93,9.18 -10.44,13.69 -6.43,8.48 -12.95,16.79 -19.47,25.1 -3.85,4.69 -7.53,9.28 -11.22,13.88 -6.61,8.13 -13.31,16.1 -20.01,24.07 -3.77,4.42 -7.45,9.02 -11.31,13.28 -6.95,8.32 -13.91,16.21 -21.05,24.18 -3.52,4.08 -7.31,8.07 -10.83,12.15 -7.9,8.6 -15.61,17.12 -23.61,25.55 -3.11,3.2 -6.05,6.3 -8.99,9.42 -10.51,11.09 -21.2,21.85 -31.89,32.61 -0.42,0.44 -1.01,0.98 -1.43,1.43 -11.62,11.47 -23.51,22.87 -35.48,34.09 -1.26,1.33 -2.62,2.5 -4.13,3.75 -10.04,9.53 -20.42,18.81 -30.8,28.09 -3.3,2.86 -6.59,5.71 -9.72,8.48 -8.7,7.5 -17.31,15.17 -26.28,22.6 -3.8,3.12 -7.61,6.26 -11.42,9.39 -8.38,6.89 -16.75,13.78 -25.38,20.59 -3.98,3.22 -7.95,6.44 -12.02,9.49 -8.64,6.81 -17.19,13.35 -25.84,19.73 -3.9,2.96 -7.96,6.01 -11.86,8.97 -9.06,6.82 -18.49,13.4 -27.64,20.05 -3.57,2.35 -7.04,4.87 -10.35,7.29 -11.2,7.74 -22.41,15.49 -33.79,22.89 -1.62,1.08 -3.14,2.33 -4.84,3.24 -26.5,17.68 -53.37,34.24 -80.79,50.2 -2.47,1.54 -5.02,2.91 -7.66,4.54 -10.89,6.27 -21.79,12.52 -32.88,18.45 -3.49,2.08 -7.24,4.09 -10.99,6.1 -10.05,5.38 -20.11,10.75 -30.09,15.86 -4.09,2.19 -8.28,4.21 -12.2,6.3 -10.07,4.94 -19.96,9.79 -30.04,14.74 -4.02,1.93 -8.03,3.85 -12.21,5.87 -10.33,4.87 -20.83,9.83 -31.52,14.43 -3.51,1.66 -7,3.31 -10.6,4.79 -12.05,5.34 -24.18,10.52 -36.16,15.6 -2.13,0.92 -4.11,1.75 -6.24,2.68 -29.34,11.96 -59.04,23.23 -88.94,33.73 -0.77,0.2 -1.28,0.47 -1.89,0.57 -14.05,4.88 -27.93,9.67 -41.99,14.12 -2.83,0.85 -5.83,1.8 -8.66,2.66 -11.83,3.7 -23.84,7.49 -35.6,10.92 -3.78,1.14 -7.38,2.19 -11.07,3.07 -11.15,3.33 -22.66,6.41 -34.16,9.5 -3.69,0.87 -7.47,2.01 -11.17,2.9 -11.76,3 -23.36,5.91 -35.05,8.65 -3.35,0.7 -6.78,1.66 -10.14,2.36 -12.89,2.94 -25.62,5.8 -38.26,8.4 -2.41,0.41 -4.72,0.99 -6.97,1.31 -46.27,9.39 -93.02,17.07 -139.84,22.58 -2.24,0.32 -4.48,0.64 -6.55,0.87 -13.18,1.57 -26.29,2.88 -39.4,4.2 -1.21,0.2 -2.5,0.24 -3.71,0.44 -1.47,0.12 -2.77,0.16 -4.23,0.28 -88,8.03 -176.53,9.32 -265.06,4.04 -0.87,0.02 -1.56,-0.04 -2.25,-0.12 -38.03,-2.24 -76.36,-5.87 -114.36,-10.54 -2.87,-0.44 -5.73,-0.88 -8.77,-1.23 -17.62,-2.2 -35.08,-4.92 -52.7,-7.56 -1.04,-0.31 -2,-0.46 -2.96,-0.61 -18.5,-3.04 -36.93,-6.34 -55.54,-9.99 -2.96,-0.6 -6.17,-1.3 -9.39,-1.99 -15.22,-3.04 -30.36,-6.35 -45.59,-9.83 -3.92,-0.76 -7.75,-1.78 -11.49,-2.62 -18.11,-4.35 -36.05,-8.79 -54,-13.67 -0.96,-0.15 -1.83,-0.56 -2.79,-0.7 -16.72,-4.65 -33.12,-9.48 -49.77,-14.38 -4.54,-1.52 -9.25,-2.94 -13.7,-4.3 -14.74,-4.61 -29.31,-9.32 -43.89,-14.45 -2.97,-1.05 -6.12,-2 -9.34,-3.12 -17.03,-6.02 -33.98,-12.3 -51.02,-18.75 -4.46,-1.78 -8.92,-3.56 -13.55,-5.25 -12.76,-5.01 -25.62,-10.2 -38.39,-15.64 -5.16,-2.29 -10.5,-4.47 -15.83,-6.66 -16.28,-7.08 -32.39,-14.25 -48.51,-21.86 -3.77,-1.72 -7.46,-3.69 -11.22,-5.41 -12.61,-5.97 -25.15,-12.2 -37.52,-18.52 -6.84,-3.36 -13.51,-6.82 -20.16,-10.26 -9.75,-5.1 -19.58,-10.37 -29.23,-15.72 -7.02,-3.71 -13.87,-7.49 -20.72,-11.29 -13.79,-7.75 -27.5,-15.77 -41.3,-23.95 -2.64,-1.66 -5.36,-3.05 -8,-4.71 -3.87,-2.32 -7.49,-4.99 -11.36,-7.31 -17.85,-10.84 -35.28,-22.12 -52.9,-33.75 -1.06,-0.75 -2.28,-1.41 -3.34,-2.15 -101.31,-67.72 -193.16,-144.01 -275.61,-227.29 -62.97,-63.67 -120.35,-131.2 -172.1,-202.18 -312.52,-429.18 -417.17,-980.44 -282.02,-1494.84 19.58,-74.92 44.27,-149.28 74.2,-222.05 44.28,-107.85 100.22,-213.16 167.61,-313.85 0.91,-1.58 1.9,-2.99 2.99,-4.23 9.15,-13.66 18.55,-27.23 27.87,-40.55 337.36,-473.21 867.98,-732.11 1411.88,-742.28l0.02 0.87c58.59,-1.95 117.94,8.2 174.43,31.05 26.58,10.77 52.55,24.51 77.39,41.03 52.34,35.16 94.73,80.01 125.93,130.19 86.48,138.79 89.29,321.19 -7.51,466.11 -40.54,60.7 -94.02,107.48 -153.86,139.47 -20.28,10.85 -41.23,20.06 -62.73,27.4 -39.24,13.53 -80.2,21.39 -121.48,23.3 -2,-0.03 -3.98,0.37 -6.05,0.17 -4.84,-0.04 -10.28,0.45 -15.46,0.59 -17.98,0.41 -35.85,1.42 -53.72,2.86 -33.99,2.83 -67.86,7.56 -101.41,14.1 -5.07,1.18 -10.23,2.18 -15.3,3.36 -10.4,2.28 -20.8,4.55 -31.2,7.25 -6.18,1.56 -12.37,3.11 -18.55,4.66 -9.52,2.68 -19.13,5.62 -28.73,8.57 -5.66,1.71 -11.25,3.16 -16.82,5.04 -14.92,4.91 -29.48,10.06 -43.93,15.81 -3.86,1.41 -7.44,2.89 -11.04,4.37 -13,5.2 -25.91,10.57 -38.56,16.45 -2.13,0.92 -4.27,1.85 -6.4,2.77 -14.78,6.8 -29.11,14.02 -43.27,21.59l-9.37 5.01c-12.18,6.73 -24.28,13.64 -36.36,20.97 -2.3,1.45 -4.69,2.72 -7.14,4.26 -13.78,8.68 -27.64,17.62 -41.21,27.07 -2.2,1.62 -4.4,3.24 -6.61,4.86 -11.8,8.28 -23.32,17.07 -34.75,26.03 -2.29,1.88 -4.83,3.68 -7.29,5.65 -13.04,10.47 -25.72,21.2 -38.29,32.53 -1.53,1.26 -2.96,2.67 -4.39,4.1 -11.05,10.08 -21.93,20.49 -32.61,31.25 -2.45,2.4 -4.89,4.8 -7.41,7.47 -11.78,12 -23.29,24.51 -34.62,37.35 -0.74,1.06 -1.42,1.85 -2.26,2.74 -10.23,12.04 -20.09,24.33 -29.87,36.79 -2.59,3.35 -5.01,6.62 -7.6,9.98 -10.26,13.6 -20.35,27.54 -29.99,41.9 -260,388.68 -182.36,904.62 163.57,1201.51 27.62,23.37 56.86,45.67 87.6,66.28 2.03,1.33 4.14,2.83 6.17,4.16 10.65,6.8 21.3,13.6 31.94,19.97 4.57,2.81 9.22,5.37 13.88,7.92 8.26,4.79 16.52,9.58 24.87,14.11 5.53,2.97 11.14,5.67 16.84,8.54 7.54,3.85 15.08,7.71 22.71,11.31 5.96,2.95 11.91,5.47 18.04,8.32 7.18,3.18 14.62,6.44 21.97,9.52 6.21,2.6 12.59,5.11 18.97,7.61 7.17,2.75 14.34,5.49 21.51,8.24l19.38 6.73c7.25,2.49 14.4,4.79 21.73,7.02 6.54,1.98 13.08,3.97 19.8,5.86 7.23,2.05 14.37,3.93 21.52,5.81 6.79,1.63 13.5,3.52 20.03,5.07 7.39,1.53 14.62,3.15 22.01,4.67 6.69,1.46 13.31,2.75 19.92,4.04 7.56,1.44 14.94,2.54 22.42,3.8 6.42,0.95 13.2,2.15 19.63,3.1 7.81,1.09 15.7,1.9 23.6,2.73 6.24,0.61 12.4,1.48 18.65,2.09 11.01,0.91 22.09,1.56 33.35,2.11 7.98,0.56 15.94,0.69 23.99,0.99 8.66,0.19 17.14,0.48 25.87,0.42 6.4,0.09 12.96,-0.36 19.53,-0.37 7.35,-0.2 14.96,-0.32 22.64,-0.7 6.65,-0.27 13.38,-0.79 20.12,-1.33 7.25,-0.37 14.59,-1 21.92,-1.64 6.64,-0.69 13.45,-1.49 20.09,-2.19 7.24,-0.8 14.39,-1.78 21.54,-2.74 6.89,-1.05 13.61,-2.02 20.24,-3.15 7.23,-1.23 14.29,-2.38 21.43,-3.78 6.62,-1.14 13.34,-2.53 20.04,-3.93 7.14,-1.4 14.19,-2.98 21.15,-4.72 6.62,-1.56 13.24,-3.14 19.76,-4.87 7.13,-1.84 14.26,-3.68 21.29,-5.68 6.44,-1.9 12.87,-3.81 19.31,-5.72 7.11,-2.27 14.06,-4.45 21.09,-6.89 6.34,-2.08 12.69,-4.15 18.77,-6.3 7.36,-2.62 14.55,-5.58 21.65,-8.29 5.99,-2.32 11.9,-4.39 17.8,-6.89 7.87,-3.32 15.64,-6.82 23.59,-10.42 4.95,-2.21 10.01,-4.25 14.96,-6.46 12.63,-5.88 24.92,-12.01 37.29,-18.4 4.43,-2.37 8.77,-4.91 13.04,-7.19 8.1,-4.54 16.11,-8.83 23.94,-13.45 5.36,-3.09 10.47,-6.25 15.74,-9.51 6.88,-4.34 13.86,-8.51 20.58,-12.76 5.52,-3.61 10.79,-7.3 16.05,-10.99 6.46,-4.32 12.92,-8.65 19.18,-13.32 5.44,-3.78 10.78,-7.73 16.03,-11.85 6.1,-4.58 12.38,-9.25 18.39,-14 5.25,-4.13 10.41,-8.42 15.74,-12.8 5.93,-4.92 11.74,-10 17.41,-15 5.33,-4.38 10.3,-9.02 15.37,-13.48 5.57,-5.16 11.21,-10.6 16.86,-16.03 4.98,-4.63 9.69,-9.34 14.57,-14.15 5.56,-5.6 11.02,-11.37 16.32,-17.05 4.79,-4.97 9.42,-9.86 13.95,-14.92 3.69,-4.16 7.29,-8.5 11.15,-12.75 7.13,-8.41 14.42,-16.92 21.44,-25.5 6.52,-8.3 13.13,-16.44 19.56,-24.93 1.74,-2.46 3.58,-4.76 5.33,-7.23 8.26,-11.22 16.42,-22.59 24.15,-34.39 172.09,-257.06 195.81,-569.85 92.24,-837.81 -53.51,-128.78 -43.82,-280.83 39.36,-405.31 5.48,-8.19 11.15,-16.04 17.17,-23.65 1.42,-1.85 2.91,-3.97 4.51,-5.91 5.44,-6.64 11.05,-13.36 16.84,-19.75 0.67,-0.8 1.17,-1.5 1.93,-2.13 6.22,-6.83 12.62,-13.31 19.1,-19.63 2.03,-1.96 4.05,-3.92 6.16,-5.71 5.4,-5.08 11.05,-10.08 16.63,-14.81 1.52,-1.26 3.04,-2.5 4.57,-3.76 6.68,-5.55 13.81,-10.67 20.76,-15.7 2.55,-1.8 4.92,-3.51 7.39,-5.04 5.6,-3.87 11.46,-7.66 17.24,-11.2l5.87 -3.79c7.49,-4.44 15.16,-8.54 22.66,-12.55 2.48,-1.1 4.69,-2.29 7.17,-3.39 6.57,-3.29 13.23,-6.42 19.91,-9.11 1.19,-0.63 2.38,-1.28 3.67,-1.75 0.51,-0.27 0.94,-0.28 1.45,-0.55 8.03,-3.42 16.09,-6.41 24.4,-9.31 1.71,-0.48 3.34,-1.13 5.05,-1.61 6.86,-2.35 13.63,-4.44 20.59,-6.19 2.06,-0.67 4.11,-1.32 6.27,-1.81 8.5,-2.14 17,-4.27 25.52,-5.97 0.6,-0.1 1.37,-0.3 1.98,-0.4 7.83,-1.34 15.67,-2.67 23.68,-3.68 2.58,-0.5 5.08,-0.74 7.76,-1.07 6.81,-0.79 13.54,-1.32 20.44,-1.94 1.9,-0.14 3.8,-0.28 5.87,-0.5 8.38,-0.32 16.76,-0.64 25.15,-0.52 2.59,-0.07 5.11,0.12 7.7,0.05 6.4,0.09 12.73,0.43 19.14,0.95 2.69,0.1 5.37,0.2 7.98,0.56 8.41,0.55 16.82,1.53 25.16,2.77 0.43,-0 0.86,-0.02 1.12,0.06 2.61,0.36 5.31,0.89 8,1.43 4.25,0.58 8.43,1.41 12.77,2.16 3.22,0.69 6.45,1.38 9.66,2.07 4,0.93 8,1.86 12.01,2.79 3.31,0.86 6.88,1.8 10.28,2.83 3.57,0.94 7.41,1.97 10.89,3.16 3.67,1.11 7.33,2.23 10.92,3.6 3.4,1.04 6.89,2.23 10.21,3.53 3.76,1.29 7.61,2.73 11.27,4.28 3.24,1.11 6.38,2.5 9.54,3.88 3.93,1.62 7.61,3.17 11.37,4.88 3.24,1.56 6.23,3.03 9.47,4.59 3.59,1.8 7.36,3.51 11.05,5.49 3.42,1.89 6.68,3.88 10.01,5.61 3.43,1.89 6.59,3.71 10.01,5.6 6.51,3.98 13.02,7.95 19.28,12.28 10.83,7.14 21.07,14.82 30.8,22.77 6.55,5.27 12.58,10.81 18.61,16.35 3.37,3.02 6.82,5.78 10.02,8.9 4.97,4.79 9.69,9.94 14.42,15.08 4.01,4.22 8.19,8.34 12.02,12.65 3.14,3.81 6.1,7.71 9.31,11.68 3.94,4.91 8.31,9.81 12.08,14.8l0.09 0.18c0.81,1.1 1.36,2.12 2.16,3.23 3.78,5.43 7.22,11.04 10.74,16.4 3.43,5.18 7.03,10.27 10.11,15.63 3.72,6.13 7,12.7 10.38,19.01z"/>
   <path class="fil1" d="M1285.17 1925.6l131.6 -618.56c30.22,-142.04 194.45,-208.51 314.96,-127.47l0 0c75.45,50.74 111.55,142.92 90.62,231.4l-179.17 757.4 -190.22 -127.93 631.55 -429.73c86.58,-58.91 200.3,-59.22 287.2,-0.77l0 0c97.64,65.67 97.95,209.24 0.59,275.33l-554.45 376.39c-119.54,81.15 -276.42,81.5 -396.31,0.87l0 0c-109.96,-73.95 -163.93,-207.31 -136.36,-336.92z"/>
   <path class="fil1" d="M3968.23 3434.74c-72.53,-72.53 -169.22,-112.82 -272.19,-112.82 -102.96,0 -199.66,40.29 -272.19,112.82 -72.53,72.53 -112.82,169.22 -112.82,272.19 0,102.96 40.29,199.66 112.82,272.19l911.47 911.47c150.42,150.42 394.85,150.42 545.28,0 150.42,-150.41 150.42,-394.85 0,-545.27l-912.37 -910.58z"/>
   <path class="fil0" d="M3529.5 3227.02l-273.98 -273.08c-45.67,57.3 -94.91,112.82 -147.73,166.53 -52.83,52.83 -108.34,102.07 -165.65,147.73l274.88 274.88c24.18,-70.73 62.67,-137.88 119.09,-194.29 55.51,-56.4 120.87,-96.7 193.39,-121.77z"/>
  </g>
  <path class="fil2" d="M5936.04 2265.3c402.06,0 618.05,-201.03 618.05,-611.64l0 -919.59 -1007.27 0 0 380.67 508.98 0 0 568.86c0,121.9 -57.74,186.06 -162.53,186.06 -83.41,0 -158.26,-49.18 -237.38,-147.56l-271.6 320.79c124.04,145.42 318.65,222.41 551.75,222.41z"/>
  <path id="_1" class="fil2" d="M7388.14 2252.46c397.77,0 680.07,-252.35 680.07,-607.36 0,-355.01 -282.29,-605.22 -680.07,-605.22 -395.64,0 -680.07,250.21 -680.07,605.22 0,355.01 284.43,607.36 680.07,607.36zm0 -376.39c-106.93,0 -190.34,-79.12 -190.34,-230.97 0,-151.84 83.4,-228.83 190.34,-228.83 106.93,0 190.33,76.99 190.33,228.83 0,151.84 -83.4,230.97 -190.33,230.97z"/>
  <path id="_2" class="fil2" d="M8679.84 1187.45l0 -126.18 -459.8 0 0 1169.81 483.32 0 0 -519.68c0,-186.06 102.65,-252.35 248.08,-252.35 34.22,0 64.16,2.14 106.93,8.55l0 -427.71c-162.53,0 -292.98,49.18 -378.53,147.56z"/>
  <path id="_3" class="fil2" d="M9995.07 644.25l0 496.15c-70.58,-68.43 -168.95,-100.51 -297.26,-100.51 -305.82,0 -564.59,228.82 -564.59,605.22 0,376.39 258.77,607.36 564.59,607.36 145.42,0 250.21,-38.49 320.79,-117.62l0 96.24 459.8 0 0 -1586.83 -483.32 0zm-181.78 1231.82c-106.93,0 -190.34,-79.12 -190.34,-230.97 0,-151.84 83.41,-228.83 190.34,-228.83 106.93,0 190.34,76.99 190.34,228.83 0,151.84 -83.41,230.97 -190.34,230.97z"/>
  <path id="_4" class="fil2" d="M11216.2 1039.89c-181.78,0 -389.22,47.05 -526.09,132.59l153.98 318.65c76.99,-57.74 194.61,-91.96 299.4,-91.96 136.87,0 205.31,47.05 220.28,136.87l-194.61 0c-363.56,0 -534.65,126.18 -534.65,352.87 0,201.03 147.56,363.56 434.13,363.56 164.67,0 275.88,-57.74 331.48,-175.37l0 153.98 449.1 0 0 -628.74c0,-389.22 -230.97,-562.44 -633.02,-562.44zm-2.14 921.73c-72.71,0 -115.49,-40.64 -115.49,-94.1 0,-64.16 44.91,-98.37 147.56,-98.37l119.76 0 0 81.27c-25.66,76.99 -85.54,111.21 -151.84,111.21z"/>
  <path id="_5" class="fil2" d="M12871.46 1039.89c-136.87,0 -260.91,44.91 -352.87,136.87l0 -115.49 -459.8 0 0 1169.81 483.32 0 0 -549.62c0,-173.22 83.41,-235.25 181.78,-235.25 87.68,0 143.28,55.61 143.28,201.03l0 583.83 483.32 0 0 -667.24c0,-367.83 -209.58,-523.95 -479.04,-523.95z"/>
  <path id="_6" class="fil2" d="M14990.8 2265.3c292.98,0 523.95,-106.93 671.51,-299.4l-318.65 -284.43c-87.68,111.21 -192.47,175.37 -327.2,175.37 -209.58,0 -350.73,-145.43 -350.73,-374.25 0,-228.83 141.15,-374.25 350.73,-374.25 134.73,0 239.52,64.15 327.2,175.36l318.65 -284.43c-147.56,-192.47 -378.53,-299.4 -671.51,-299.4 -481.18,0 -834.05,322.92 -834.05,782.72 0,459.8 352.87,782.72 834.05,782.72z"/>
  <polygon id="_7" class="fil2" points="16911.24,734.07 16545.54,1608.75 16188.4,734.07 15645.2,734.07 16278.22,2231.08 16774.37,2231.08 17407.39,734.07 "/>
  <path id="_8" class="fil2" d="M18904.4 2265.3c292.98,0 523.95,-106.93 671.51,-299.4l-318.65 -284.43c-87.68,111.21 -192.47,175.37 -327.2,175.37 -209.58,0 -350.73,-145.43 -350.73,-374.25 0,-228.83 141.15,-374.25 350.73,-374.25 134.73,0 239.52,64.15 327.2,175.36l318.65 -284.43c-147.56,-192.47 -378.53,-299.4 -671.51,-299.4 -481.18,0 -834.05,322.92 -834.05,782.72 0,459.8 352.87,782.72 834.05,782.72z"/>
  <path id="_9" class="fil2" d="M20230.32 1039.89c-181.78,0 -389.22,47.05 -526.09,132.59l153.98 318.65c76.99,-57.74 194.61,-91.96 299.4,-91.96 136.87,0 205.31,47.05 220.28,136.87l-194.61 0c-363.56,0 -534.65,126.18 -534.65,352.87 0,201.03 147.56,363.56 434.13,363.56 164.67,0 275.88,-57.74 331.48,-175.37l0 153.98 449.1 0 0 -628.74c0,-389.22 -230.97,-562.44 -633.02,-562.44zm-2.14 921.73c-72.71,0 -115.49,-40.64 -115.49,-94.1 0,-64.16 44.91,-98.37 147.56,-98.37l119.76 0 0 81.27c-25.66,76.99 -85.54,111.21 -151.84,111.21z"/>
  <path id="_10" class="fil2" d="M21532.71 1187.45l0 -126.18 -459.8 0 0 1169.81 483.32 0 0 -519.68c0,-186.06 102.65,-252.35 248.08,-252.35 34.22,0 64.16,2.14 106.93,8.55l0 -427.71c-162.53,0 -292.98,49.18 -378.53,147.56z"/>
  <path id="_11" class="fil2" d="M23282.08 1645.1c0,-395.64 -297.26,-605.22 -643.71,-605.22 -378.53,0 -662.96,250.21 -662.96,605.22 0,348.59 278.01,607.36 707.87,607.36 233.11,0 397.78,-64.16 511.12,-188.19l-252.35 -254.49c-76.99,57.74 -136.87,85.55 -243.8,85.55 -119.76,0 -201.03,-47.05 -235.24,-136.87l812.66 0c2.14,-34.21 6.42,-79.12 6.42,-113.34zm-639.44 -275.88c98.37,0 168.95,57.74 188.19,156.12l-376.39 0c19.24,-98.37 87.68,-156.12 188.19,-156.12z"/>
  <path id="_12" class="fil2" d="M24678.57 1645.1c0,-395.64 -297.26,-605.22 -643.71,-605.22 -378.53,0 -662.96,250.21 -662.96,605.22 0,348.59 278.01,607.36 707.87,607.36 233.11,0 397.78,-64.16 511.12,-188.19l-252.35 -254.49c-76.99,57.74 -136.87,85.55 -243.8,85.55 -119.76,0 -201.03,-47.05 -235.24,-136.87l812.66 0c2.14,-34.21 6.42,-79.12 6.42,-113.34zm-639.44 -275.88c98.37,0 168.95,57.74 188.19,156.12l-376.39 0c19.24,-98.37 87.68,-156.12 188.19,-156.12z"/>
  <path id="_13" class="fil2" d="M25290.2 1187.45l0 -126.18 -459.8 0 0 1169.81 483.32 0 0 -519.68c0,-186.06 102.65,-252.35 248.08,-252.35 34.22,0 64.16,2.14 106.93,8.55l0 -427.71c-162.53,0 -292.98,49.18 -378.53,147.56z"/>
  <path id="_14" class="fil2" d="M26263.26 2252.46c406.33,0 605.22,-183.92 605.22,-395.64 0,-468.35 -671.52,-310.1 -671.52,-432 0,-27.8 34.22,-55.6 158.25,-55.6 98.38,0 218.14,19.25 337.9,85.54l132.59 -318.65c-124.04,-64.16 -305.82,-96.24 -476.9,-96.24 -393.5,0 -598.8,179.64 -598.8,399.91 0,468.35 673.65,307.96 673.65,427.72 0,34.22 -32.08,55.61 -149.7,55.61 -139,0 -297.26,-38.5 -408.47,-104.79l-132.59 318.65c119.76,68.44 329.34,115.49 530.37,115.49z"/>
  <path id="_15" class="fil2" d="M7033.13 3602.1l-387.08 -115.49c-12.83,70.58 -32.08,136.87 -57.74,194.61l-158.25 -134.73c175.37,-98.37 258.77,-213.86 258.77,-365.7 0,-230.97 -198.89,-378.53 -496.15,-378.53 -325.07,0 -538.92,164.67 -538.92,404.19 0,98.38 40.64,192.47 128.32,286.57 -198.89,111.21 -290.85,243.8 -290.85,431.99 0,250.22 265.19,434.13 624.47,434.13 188.19,0 357.14,-51.33 500.43,-143.29l158.25 136.87 258.77 -292.99 -141.15 -119.76c66.3,-100.51 113.34,-213.86 141.15,-337.89zm-838.32 -487.6c59.88,0 89.82,32.08 89.82,76.99 0,40.64 -29.94,81.27 -117.62,128.32 -59.88,-55.61 -74.85,-83.41 -74.85,-119.76 0,-49.19 36.36,-85.55 102.65,-85.55zm-42.77 885.37c-119.76,0 -188.19,-57.74 -188.19,-128.31 0,-55.61 23.52,-100.52 83.4,-143.28l273.74 235.24c-53.46,23.52 -111.21,36.36 -168.95,36.36z"/>
  <polygon id="_16" class="fil2" points="8964.27,2827.93 8598.58,3702.61 8241.43,2827.93 7698.23,2827.93 8331.25,4324.94 8827.41,4324.94 9460.42,2827.93 "/>
  <path id="_17" class="fil2" d="M9779.07 3061.04c177.5,0 290.85,-106.93 290.85,-254.49 0,-139.01 -113.34,-237.38 -290.85,-237.38 -177.5,0 -290.85,106.93 -290.85,245.94 0,139 113.34,245.94 290.85,245.94zm-241.66 1263.9l483.32 0 0 -1169.81 -483.32 0 0 1169.81z"/>
  <path id="_18" class="fil2" d="M10692.25 4346.33c406.33,0 605.22,-183.92 605.22,-395.64 0,-468.35 -671.52,-310.1 -671.52,-432 0,-27.8 34.22,-55.6 158.25,-55.6 98.38,0 218.14,19.25 337.9,85.54l132.59 -318.65c-124.04,-64.16 -305.82,-96.24 -476.9,-96.24 -393.5,0 -598.8,179.64 -598.8,399.91 0,468.35 673.65,307.96 673.65,427.72 0,34.22 -32.08,55.61 -149.7,55.61 -139,0 -297.26,-38.5 -408.47,-104.79l-132.59 318.65c119.76,68.44 329.34,115.49 530.37,115.49z"/>
  <path id="_19" class="fil2" d="M11966.85 3133.75c-181.78,0 -389.22,47.05 -526.09,132.59l153.98 318.65c76.99,-57.74 194.61,-91.96 299.4,-91.96 136.87,0 205.31,47.05 220.28,136.87l-194.61 0c-363.56,0 -534.65,126.18 -534.65,352.87 0,201.03 147.56,363.56 434.13,363.56 164.67,0 275.88,-57.74 331.48,-175.37l0 153.98 449.1 0 0 -628.74c0,-389.22 -230.97,-562.44 -633.02,-562.44zm-2.14 921.73c-72.71,0 -115.49,-40.64 -115.49,-94.1 0,-64.16 44.91,-98.37 147.56,-98.37l119.76 0 0 81.27c-25.66,76.99 -85.54,111.21 -151.84,111.21z"/>
  <path id="_20" class="fil2" d="M13267.1 4346.33c406.33,0 605.22,-183.92 605.22,-395.64 0,-468.35 -671.52,-310.1 -671.52,-432 0,-27.8 34.22,-55.6 158.25,-55.6 98.38,0 218.14,19.25 337.9,85.54l132.59 -318.65c-124.04,-64.16 -305.82,-96.24 -476.9,-96.24 -393.5,0 -598.8,179.64 -598.8,399.91 0,468.35 673.65,307.96 673.65,427.72 0,34.22 -32.08,55.61 -149.7,55.61 -139,0 -297.26,-38.5 -408.47,-104.79l-132.59 318.65c119.76,68.44 329.34,115.49 530.37,115.49z"/>
 </g>
</svg>
